<?xml version="1.0" encoding="UTF-8"?>
<svg id="Isolation_Mode" xmlns="http://www.w3.org/2000/svg" version="1.1" viewBox="0 0 1920 1080">
  <!-- Generator: Adobe Illustrator 29.7.1, SVG Export Plug-In . SVG Version: 2.1.1 Build 8)  -->
  <defs>
    <style>
      .st0 {
        fill: #1f1e44;
      }
    </style>
  </defs>
  <path class="st0" d="M907.76,529.78v-169.23h169.25v133.65c0,64.28-12.98,111.19-39.04,140.39-26.08,29.35-69.21,45.9-129.25,49.7v-60.04c29.7-2.46,52.16-11.8,67.58-27.72,15.25-16.07,22.96-38.19,22.96-66.74h-91.52Z"/>
  <path class="st0" d="M1111.54,529.78v-169.23h169.25v133.65c0,64.28-12.98,111.19-39.04,140.39-26.08,29.35-69.21,45.9-129.25,49.7v-60.04c29.7-2.46,52.16-11.8,67.58-27.72,15.25-16.07,22.96-38.19,22.96-66.74h-91.52Z"/>
</svg>