<?xml version="1.0" encoding="UTF-8"?>
<svg id="Layer_1" xmlns="http://www.w3.org/2000/svg" version="1.1" viewBox="0 0 7368 2036">
  <!-- Generator: Adobe Illustrator 29.7.1, SVG Export Plug-In . SVG Version: 2.1.1 Build 8)  -->
  <defs>
    <style>
      .st0 {
        fill: #f4be18;
      }
    </style>
  </defs>
  <path class="st0" d="M1107.13,1567.41l-306.11-154.1c-13.95-7.02-30.54-6.38-43.91,1.71l-293.17,177.48c-32.95,19.94-74.19-7.63-68.35-45.7l51.97-338.75c2.37-15.44-3.37-31.02-15.2-41.23l-259.39-223.98c-29.15-25.17-15.67-72.92,22.34-79.13l338.23-55.25c15.42-2.52,28.46-12.79,34.51-27.19l132.86-315.91c14.93-35.5,64.51-37.44,82.16-3.2l157.07,304.6c7.16,13.89,20.96,23.11,36.53,24.42l341.5,28.74c38.38,3.23,55.54,49.79,28.44,77.15l-241.15,243.51c-10.99,11.1-15.5,27.08-11.94,42.29l78.2,333.67c8.79,37.5-30.19,68.2-64.59,50.89Z"/>
  <path class="st0" d="M2565.11,1567.41l-306.11-154.1c-13.95-7.02-30.54-6.38-43.91,1.71l-293.17,177.48c-32.95,19.94-74.19-7.63-68.35-45.7l51.97-338.75c2.37-15.44-3.37-31.02-15.2-41.23l-259.39-223.98c-29.15-25.17-15.67-72.92,22.34-79.13l338.23-55.25c15.42-2.52,28.46-12.79,34.51-27.19l132.86-315.91c14.93-35.5,64.51-37.44,82.16-3.2l157.07,304.6c7.16,13.89,20.96,23.11,36.53,24.42l341.5,28.74c38.38,3.23,55.54,49.79,28.44,77.15l-241.15,243.51c-10.99,11.1-15.5,27.08-11.94,42.29l78.2,333.67c8.79,37.5-30.19,68.2-64.59,50.89Z"/>
  <path class="st0" d="M4023.09,1567.41l-306.11-154.1c-13.95-7.02-30.54-6.38-43.91,1.71l-293.17,177.48c-32.95,19.94-74.19-7.63-68.35-45.7l51.97-338.75c2.37-15.44-3.37-31.02-15.2-41.23l-259.39-223.98c-29.15-25.17-15.67-72.92,22.34-79.13l338.23-55.25c15.42-2.52,28.46-12.79,34.51-27.19l132.86-315.91c14.93-35.5,64.51-37.44,82.16-3.2l157.07,304.6c7.16,13.89,20.96,23.11,36.53,24.42l341.5,28.74c38.38,3.23,55.54,49.79,28.44,77.15l-241.15,243.51c-10.99,11.1-15.5,27.08-11.94,42.29l78.2,333.67c8.79,37.5-30.19,68.2-64.59,50.89Z"/>
  <path class="st0" d="M5481.07,1567.41l-306.11-154.1c-13.95-7.02-30.54-6.38-43.91,1.71l-293.17,177.48c-32.95,19.94-74.19-7.63-68.35-45.7l51.97-338.75c2.37-15.44-3.37-31.02-15.2-41.23l-259.39-223.98c-29.15-25.17-15.67-72.92,22.34-79.13l338.23-55.25c15.42-2.52,28.46-12.79,34.51-27.19l132.86-315.91c14.93-35.5,64.51-37.44,82.16-3.2l157.07,304.6c7.16,13.89,20.96,23.11,36.53,24.42l341.5,28.74c38.38,3.23,55.54,49.79,28.44,77.15l-241.15,243.51c-10.99,11.1-15.5,27.08-11.94,42.29l78.2,333.67c8.79,37.5-30.19,68.2-64.59,50.89Z"/>
  <path class="st0" d="M6939.05,1567.41l-306.11-154.1c-13.95-7.02-30.54-6.38-43.91,1.71l-293.17,177.48c-32.95,19.94-74.19-7.63-68.35-45.7l51.97-338.75c2.37-15.44-3.37-31.02-15.2-41.23l-259.39-223.98c-29.15-25.17-15.67-72.92,22.34-79.13l338.23-55.25c15.42-2.52,28.46-12.79,34.51-27.19l132.86-315.91c14.93-35.5,64.51-37.44,82.16-3.2l157.07,304.6c7.16,13.89,20.96,23.11,36.53,24.42l341.5,28.74c38.38,3.23,55.54,49.79,28.44,77.15l-241.15,243.51c-10.99,11.1-15.5,27.08-11.94,42.29l78.2,333.67c8.79,37.5-30.19,68.2-64.59,50.89Z"/>
</svg>